<?xml version="1.0" encoding="UTF-8"?>
<svg id="katman_1" data-name="katman 1" xmlns="http://www.w3.org/2000/svg" viewBox="0 0 800 800">
  <defs>
    <style>
      .cls-1 {
        fill: none;
        stroke: #000;
        stroke-linejoin: round;
        stroke-width: 43.21px;
      }
    </style>
  </defs>
  <path class="cls-1" d="M227.17,303.42h-127.08v406.66h127.08v-406.66ZM238.61,163.63c.07-9.61-1.76-19.14-5.38-28.05-3.62-8.91-8.95-17.01-15.7-23.86-6.75-6.84-14.78-12.29-23.64-16.03-8.86-3.74-18.36-5.7-27.97-5.77h-2.29c-19.55,0-38.3,7.77-52.12,21.59-13.82,13.82-21.59,32.57-21.59,52.12s7.77,38.3,21.59,52.12c13.82,13.82,32.57,21.59,52.12,21.59h0c9.61.24,19.18-1.42,28.15-4.89,8.97-3.46,17.17-8.66,24.14-15.29s12.55-14.57,16.44-23.36c3.89-8.79,6.02-18.27,6.25-27.88v-2.29ZM710.08,463.03c0-122.25-77.77-169.78-155.04-169.78-25.3-1.27-50.49,4.12-73.05,15.63-22.56,11.5-41.72,28.73-55.55,49.95h-3.56v-55.41h-119.45v406.66h127.08v-216.29c-1.84-22.15,5.14-44.13,19.42-61.17,14.28-17.04,34.7-27.75,56.83-29.82h4.83c40.41,0,70.4,25.41,70.4,89.46v217.82h127.08l1.02-247.04Z"/>
</svg>