<?xml version="1.0" encoding="UTF-8"?>
<svg xmlns="http://www.w3.org/2000/svg" xmlns:xlink="http://www.w3.org/1999/xlink" viewBox="0 0 3000 3000">
  <defs>
    <style>
      .cls-1 {
        fill: #fff;
      }

      .cls-1, .cls-2 {
        fill-rule: evenodd;
      }

      .cls-3 {
        fill: none;
      }

      .cls-2 {
        fill: #be1823;
      }

      .cls-4 {
        clip-path: url(#clippath);
      }
    </style>
    <clipPath id="clippath">
      <rect class="cls-3" x="9.5" y="9.52" width="2981" height="2980.97"/>
    </clipPath>
  </defs>
  <g id="katman_1" data-name="katman 1">
    <g class="cls-4">
      <path class="cls-2" d="M1462.48,55.45c797.8-20.72,1461.34,609.24,1482.06,1407.06,20.72,797.8-609.24,1461.34-1407.05,1482.06-797.8,20.7-1461.36-609.26-1482.06-1407.06C34.72,739.71,664.68,76.17,1462.48,55.45"/>
    </g>
  </g>
  <g id="katman_2" data-name="katman 2">
    <polygon class="cls-1" points="2187.72 1102.15 2376.38 1340.73 2661.61 1234.89 2493.06 1488.12 2681.78 1726.62 2388.85 1644.62 2220.3 1897.85 2207.8 1593.88 1914.96 1511.88 2200.21 1406.08 2187.72 1102.15"/>
    <path class="cls-1" d="M1183.9,616.6h0c146.72-3.8,286.22,28.31,410.04,88.25,20.07,9.69,39.71,20.27,59.19,31.47,99.15,57.62,186.31,133.79,256.34,223.74,5.93,7.63-6.1,19.62-13.73,13.67v-.02c-17.63-13.36-36-26.04-55.04-37.84-19.25-11.85-38.96-22.85-59.08-32.86-104.39-51.77-223.78-79.82-350.08-76.53h-.08c-195.95,5.09-371.91,84.77-497.66,209.1-125.49,124.14-200.88,292.9-196.12,476.49v.13c4.78,183.67,88.9,348.3,220.67,465.82,131.94,117.58,311.8,187.97,507.77,182.89h.13c87.7-2.28,171.3-19.46,248.24-48.89,12.52-4.8,24.95-9.92,37.03-15.35,62.36-27.93,119.91-64.14,170.86-107.03,7.34-6.19,19.83,5.47,14.01,13.19v.08c-21.83,31.22-45.67,61.01-71.26,89.11-25.62,28.22-53.15,54.74-82.15,79.53-149.51,127.23-342.05,206.35-553.23,211.83h-.06c-244.64,6.29-469.21-87.12-634.34-242.96-165.05-155.84-270.53-374.04-276.86-617.28v-.13c-6.31-243.25,87.7-466.68,244.51-630.87,156.75-164.23,376.18-269.15,620.74-275.56h.13Z"/>
  </g>
</svg>